# xmcd
#
# Track frame offsets:
#	150
#	10705
#	21297
#	32085
#	49022
#	59362
#	69357
#	84377
#	100792
#	114940
#	127177
#
# Disc length: 1931 seconds
#
# Revision: 0
# Processed by: cddbd v1.4PL0 Copyright (c) Steve Scherf et al.
# Submitted via: EasyCDDAExtractor 4.6.0.1
#
DISCID=8507890b
DTITLE=The Gaithers - Oh Happy Day
DYEAR=1900
DGENRE=Gospel
TTITLE0=I'm Feelin' Fine
TTITLE1=Won't It Be Glory There
TTITLE2=Lord, I'm Ready Now to Go
TTITLE3=Paradise Island
TTITLE4=O Happy Day
TTITLE5=When Morning Sweeps the Eastern Sky
TTITLE6=Wait Till You See Me in My New Home
TTITLE7=The Love of God
TTITLE8=Heaven's Joy Awaits
TTITLE9=O The Glory Did Roll
TTITLE10=I Just Steal Away and Pray
EXTD=
EXTT0=
EXTT1=
EXTT2=
EXTT3=
EXTT4=
EXTT5=
EXTT6=
EXTT7=
EXTT8=
EXTT9=
EXTT10=
PLAYORDER=
